<svg xmlns="http://www.w3.org/2000/svg" viewBox="0 0 599.99998 387.01033" class="color-svg">
  <g fill="#fb7d89">
    <path d="M296.56484 10.77792c-72.83915.0946-139.23356 39.3563-171.13137 101.13302C58.94799 123.9784 10.824502 178.86872 10.777836 242.81029c.05945 72.3252 61.189334 131.35144 137.681074 133.22199v.1691h3.25437c.12272.005.24656.0121.36929.0177h.0767c.16327-.005.32315-.0122.48631-.0177h294.51894c.22206.0114.44337.021.6655.0311h.0729c.30076-.0105.6025-.02.90319-.0311h2.85575v-.12783c76.45659-1.93176 137.52025-60.95593 137.5603-133.24958-.08083-66.55217-52.13749-122.83653-121.93208-131.97261-32.14966-61.23924-98.28514-100.03143-170.72555-100.07353zm0 1.76699c71.89438.0418 137.51834 38.61253 169.2739 99.49027l.22305.42104.49362.0657c69.12913 8.81794 120.71496 64.46336 120.79498 130.30231-.0397 71.64437-60.74964 130.08943-136.64257 131.5447l-.91781.0176v.0485h-1.02052c-.29408.0114-.58708.0221-.88122.031-.20944-.0105-.41953-.0208-.62896-.031H152.61199c-.15746.005-.31795.0121-.47535.0176-.11001-.005-.219-.012-.32909-.0176h-1.47721v-.0933l-.91782-.0176c-75.92714-1.39442-136.70438-59.83822-136.763202-131.51378.046374-63.2505 47.734142-117.51754 113.584232-129.26004l.46072-.083.20477-.40032c31.50823-61.39756 97.3844-100.42828 169.66508-100.52221z" style="line-height:normal;text-indent:0;text-align:start;text-decoration-line:none;text-decoration-style:solid;text-decoration-color:#000000;text-transform:none;block-progression:tb;isolation:auto;mix-blend-mode:normal" color="#000" font-family="sans-serif" white-space="normal" overflow="visible" solid-color="#000000" stroke="#fb7d89" stroke-width="21.55567169" stroke-linejoin="round" stroke-miterlimit="3"/>
    <path d="M300.00000123 100.59595026c-52.46705324 0-94.999995 42.53294176-94.999995 94.999995 0 39.9793039 24.7104487 74.16130276 59.6792882 88.18176936a12.66666727 12.6666636 0 0 0 1.06132727.4700473 12.7790852 12.5552258 44.747429 0 0 1.25183394.44779198c-.09424-.03496-.18573133-.07562-.279566-.11134a12.66666727 12.6666636 0 0 0 3.58476782.52694598 12.66666727 12.6666636 0 0 0 12.666666-12.666666 12.66666727 12.6666636 0 0 0-9.8512968-12.33762402c-25.12131736-10.52336478-42.77968843-35.3223028-42.77968843-64.26353195 0-38.47583393 31.19082903-69.666663 69.666663-69.666663 38.47583398 0 69.666663 31.19082907 69.666663 69.666663 0 28.96252185-17.67852373 53.7878572-42.8291644 64.2981753a12.74949206 12.5843775 44.812609 0 0-9.6385475 11.1575594 12.74949206 12.5843775 44.812609 0 0 11.61771405 13.78489198 12.74949206 12.5843775 44.812609 0 0 4.8761724-.50963064c-.01545332.01621334-.019.03356667-.03458.04952667a12.7790852 12.5552258 44.747414 0 0 .20533934-.06434666 12.7790852 12.5552258 44.747414 0 0 .7322853-.29439864 12.74949206 12.5843775 44.812609 0 0 .11868665-.0495267 12.7790852 12.5552258 44.747414 0 0 .57890464-.264708 12.74949206 12.5843775 44.812609 0 0 1.16523198-.61848795c34.36930085-14.29915858 58.54128958-48.18943146 58.54128958-87.73644738 0-52.46705324-42.53294176-94.999995-94.999995-94.999995zm-33.0075456 184.09960364c.15276.05662.30850932.10703333.46262465.16080333.01380666-.01013334.02799333-.01963334.04205333-.02964a12.7790852 12.5552258 44.747429 0 1-.50467793-.13111266zm13.48058796-21.37252887c-.0012667.02216666-.0038.05066666-.0050667.07169333.0038-.0038.00886666-.00633334.01266666-.01013334.00506666-.01266666.01013333-.02495333.01482-.03711333-.0076-.0076-.01469334-.01659337-.02229334-.0247zm-19.237499.28945865a12.66666727 12.6666636 0 0 0-.20038668.215232 12.7790852 12.5552258 44.747429 0 1 .20038666-.215232zm-.8287673.93762462a12.66666727 12.6666636 0 0 0-.17564867.23255998 12.7790852 12.5552258 44.747429 0 1 .17564866-.23255998zm-.74219064 1.03411927a12.66666727 12.6666636 0 0 0-.12122.19791666 12.7790852 12.5552258 44.747429 0 1 .12122-.19791666z"/>
  </g>
</svg>
